<?xml version="1.0" encoding="utf-8"?>
<!-- Generator: Adobe Illustrator 25.0.0, SVG Export Plug-In . SVG Version: 6.00 Build 0)  -->
<svg version="1.1" id="Layer_1" xmlns="http://www.w3.org/2000/svg" xmlns:xlink="http://www.w3.org/1999/xlink" x="0px" y="0px"
	 viewBox="0 0 791.63 318.05" style="enable-background:new 0 0 791.63 318.05;" xml:space="preserve">
<style type="text/css">
	.st0{fill:#2776EA;}
	.st1{fill:#FFFFFF;}
	.st2{fill:#0A1C44;}
</style>
<g>
	<path class="st0" d="M483.3,22.69v142.28c0,9.03-7.32,16.35-16.35,16.35H324.67c-9.03,0-16.35-7.32-16.35-16.35V22.69
		c0-9.03,7.32-16.35,16.35-16.35h142.28C475.98,6.34,483.3,13.66,483.3,22.69z"/>
	<g>
		<g>
			<polygon class="st1" points="348.61,30.06 348.61,74.93 376.68,95.95 376.73,95.91 376.73,95.98 376.68,95.95 348.61,116.96 
				348.61,161.83 382.98,136.11 382.98,55.79 			"/>
			<g>
				<polygon class="st1" points="408.65,32.05 408.65,74.93 436.73,95.95 436.77,95.91 436.77,95.98 436.73,95.95 408.65,116.96 
					408.65,159.85 443.02,134.12 443.02,57.77 				"/>
			</g>
		</g>
	</g>
</g>
<g>
	<path class="st2" d="M311.19,273.1c0-21.72,17.02-38.74,38.49-38.74c21.34,0,38.49,17.02,38.49,38.74
		c0,21.34-17.15,38.61-38.49,38.61C328.21,311.71,311.19,294.44,311.19,273.1z M371.27,273.1c0-12.57-9.4-22.61-21.59-22.61
		c-12.32,0-21.59,10.04-21.59,22.61c0,12.32,9.27,22.48,21.59,22.48C361.87,295.58,371.27,285.42,371.27,273.1z"/>
	<path class="st2" d="M447.75,235.88h17.53l16.39,51.19l18.67-51.19h17.02l18.29,51.32l17.02-51.32h17.4l-26.04,74.31h-16.51
		l-18.8-51.44l-19.31,51.44h-16.89L447.75,235.88z"/>
	<path class="st2" d="M569.31,273.1c0-24.64,18.04-38.74,36.84-38.74c9.78,0,18.42,3.94,23.88,10.42v-8.89h17.15v74.31h-17.15v-9.65
		c-5.46,6.99-14.35,11.18-24.13,11.18C587.98,311.71,569.31,297.49,569.31,273.1z M630.92,272.84c0-12.7-9.4-22.86-22.23-22.86
		c-12.7,0-22.48,10.03-22.48,22.86c0,12.96,9.78,23.12,22.48,23.12C621.52,295.96,630.92,285.67,630.92,272.84z"/>
	<path class="st2" d="M707.39,273.1c0-24.64,18.04-38.74,36.84-38.74c9.65,0,18.29,3.81,23.75,10.29v-28.45h17.28v94H768.1v-9.65
		c-5.46,6.99-14.35,11.18-24.13,11.18C726.06,311.71,707.39,297.49,707.39,273.1z M768.99,272.84c0-12.7-9.4-22.86-22.23-22.86
		c-12.7,0-22.48,10.03-22.48,22.86c0,12.96,9.78,23.12,22.48,23.12C759.59,295.96,768.99,285.67,768.99,272.84z"/>
	<g>
		<g>
			<g>
				<polygon class="st2" points="412.69,235.88 395.67,235.88 395.67,310.19 412.69,310.19 412.69,246.93 				"/>
			</g>
			<g>
				<path class="st0" d="M412.69,260.48v-2.28c0-3.2,2.6-5.8,5.8-5.8h21.83v-16.51h-13.65c-4.48,0-8.67,2.25-11.14,5.99l-2.85,4.31
					V260.48z"/>
			</g>
		</g>
	</g>
	<g>
		<g>
			<g>
				<polygon class="st2" points="674.61,235.88 657.59,235.88 657.59,310.19 674.61,310.19 674.61,246.93 				"/>
			</g>
			<g>
				<path class="st0" d="M674.61,260.48v-2.28c0-3.2,2.6-5.8,5.8-5.8h21.83v-16.51H688.6c-4.48,0-8.67,2.25-11.14,5.99l-2.85,4.31
					V260.48z"/>
			</g>
		</g>
	</g>
	<polygon class="st2" points="304.71,233.97 304.71,217.46 248.87,217.46 248.87,255.18 260.42,263.82 260.43,263.82 260.43,263.83 
		260.42,263.82 248.87,272.47 248.87,310.19 266.14,310.19 266.14,271.83 304.71,271.83 304.71,255.31 266.14,255.31 266.14,233.97 
			"/>
	<g>
		<path class="st2" d="M136.57,276.65c0,13.08-6.99,20.2-16.51,20.2c-10.8,0-15.88-7.12-15.88-18.67v-42.3h-17.4v44.08
			c0,20.2,10.8,31.75,28.58,31.75c9.53,0,16.64-3.81,21.34-10.03v8.51h17.02v-74.31h-17.15V276.65z"/>
		<path class="st2" d="M204.79,234.36c-10.04,0-18.8,4.32-24.01,10.92v-29.09h-17.15v94h17.02v-9.65
			c5.46,7.11,14.23,11.18,24.39,11.18c17.78,0,36.33-14.22,36.33-38.61C241.37,248.45,223.46,234.36,204.79,234.36z M202.12,295.96
			c-12.7,0-22.1-10.29-22.1-23.12c0-12.7,9.4-22.86,22.1-22.86c12.58,0,22.36,10.03,22.36,22.86
			C224.47,285.8,214.69,295.96,202.12,295.96z"/>
		<polygon class="st2" points="59.59,255.57 23.65,255.57 23.65,217.46 6.37,217.46 6.37,253.36 20.36,263.83 20.37,263.82 
			20.37,263.83 20.36,263.83 6.37,274.29 6.37,310.19 23.65,310.19 23.65,272.08 59.59,272.08 59.59,310.19 76.87,310.19 
			76.87,217.46 59.59,217.46 		"/>
	</g>
</g>
</svg>
